<svg width="38" height="29" viewBox="0 0 38 29" fill="none" xmlns="http://www.w3.org/2000/svg">
<path d="M14.5863 0.25C15.1163 0.30375 15.5462 0.46 15.8363 0.7975C16.1625 1.1775 16.39 1.7725 16.5 2.51625V6.3825C16.2534 6.25585 15.9905 6.16374 15.7188 6.10875C14.975 5.9725 14.215 6 13.4925 6.03125C12.7688 6.06125 12.0875 6.065 11.5387 5.91375C10.9913 5.76375 10.575 5.52875 10.2113 4.89875C10.1433 4.77777 10.0381 4.68199 9.91125 4.62568C9.78443 4.56937 9.64282 4.55554 9.5075 4.58625C9.39396 4.61401 9.29021 4.6724 9.20756 4.75505C9.1249 4.83771 9.06651 4.94146 9.03875 5.055C9.06125 4.97 8.97375 5.16625 8.805 5.3675C8.635 5.5675 8.42625 5.81125 8.18 6.03125C8.0375 6.1575 7.89625 6.24125 7.75 6.34375V3.6875C7.75 2.46 8.7 1.5 9.89875 1.5H12.71C13.229 1.46439 13.7288 1.28903 14.1562 0.9925C14.3825 0.8325 14.4338 0.50625 14.5863 0.25ZM9.86 6.07C10.2925 6.4825 10.675 6.9825 11.1875 7.125C11.98 7.34375 12.7875 7.3125 13.5312 7.28125C14.275 7.25 14.9688 7.225 15.485 7.32C15.9612 7.4075 16.2475 7.595 16.5 7.98375V9.625C16.5 12.1 14.5562 14.0787 12.125 14.0787C9.69375 14.0787 7.75 12.0988 7.75 9.625V7.8275C7.85875 7.765 7.9925 7.7025 8.10125 7.6325C8.39625 7.445 8.71375 7.22375 9 6.96875C9.27792 6.72645 9.53895 6.46542 9.78125 6.1875C9.81375 6.14875 9.82875 6.10625 9.86 6.07ZM17.75 9H35.25V26.4613L32.9062 26.5H25.25V24C25.25 22.2313 24.325 20.5813 22.7887 19.7025L16.5 16.15V13.1412C17.255 12.17 17.75 10.9538 17.75 9.62625V9ZM15.25 14.3512V16.8512C14.7525 17.775 14.2738 18.7325 13.18 19.6637L13.1412 19.7038L12.1637 20.6012L11.2262 19.7038L11.1488 19.625C10.2525 18.6575 9.39875 17.5088 9 16.4212V14.39C9.88875 14.99 10.9775 15.3275 12.125 15.3275C13.2913 15.3275 14.3525 14.9663 15.25 14.3512ZM7.28125 17.8288L6.53875 20.6413L6.5 20.6788V20.7188C6.3825 21.6912 7.4375 22.5112 8.33625 22.0863V22.0462L10.68 20.9137L11.5 21.695V29H5.25V25.25H4V29H0.25V24.1175C0.255631 23.4262 0.442616 22.7484 0.792269 22.152C1.14192 21.5556 1.64199 21.0613 2.2425 20.7188L7.28125 17.8288ZM8.57 17.945C8.96375 18.6375 9.34625 19.3025 9.86 19.8988L7.78875 20.9525H7.75V20.915C7.7475 20.9 7.745 20.9137 7.75 20.875L8.57 17.945ZM17.1637 17.945L22.1637 20.7975C22.7254 21.1216 23.1911 21.5886 23.5137 22.1512C23.8362 22.7137 24.004 23.3516 24 24V29H20.2887V25.25H19.0387V29H12.7887V21.7337L13.6875 20.9137L16.1488 22.0863C17.0588 22.4988 18.1488 21.71 18.0238 20.7188L17.985 20.64V20.6025C17.985 20.6025 17.6375 19.5863 17.32 18.5312C17.2575 18.3225 17.2175 18.1513 17.1637 17.945ZM15.9525 18.1413C16.025 18.39 16.07 18.6238 16.1488 18.8825C16.4525 19.8913 16.7 20.7675 16.735 20.875C16.73 20.905 16.725 20.9587 16.695 20.9538H16.6562L14.5463 19.9375C15.13 19.3 15.645 18.7138 15.9537 18.14L15.9525 18.1413ZM14.625 24C14.4592 24 14.3003 24.0658 14.1831 24.1831C14.0658 24.3003 14 24.4592 14 24.625C14 24.7908 14.0658 24.9497 14.1831 25.0669C14.3003 25.1842 14.4592 25.25 14.625 25.25C14.7908 25.25 14.9497 25.1842 15.0669 25.0669C15.1842 24.9497 15.25 24.7908 15.25 24.625C15.25 24.4592 15.1842 24.3003 15.0669 24.1831C14.9497 24.0658 14.7908 24 14.625 24ZM14.625 26.5C14.4592 26.5 14.3003 26.5658 14.1831 26.6831C14.0658 26.8003 14 26.9592 14 27.125C14 27.2908 14.0658 27.4497 14.1831 27.5669C14.3003 27.6842 14.4592 27.75 14.625 27.75C14.7908 27.75 14.9497 27.6842 15.0669 27.5669C15.1842 27.4497 15.25 27.2908 15.25 27.125C15.25 26.9592 15.1842 26.8003 15.0669 26.6831C14.9497 26.5658 14.7908 26.5 14.625 26.5ZM25.25 27.75H37.4375C37.1237 28.4275 36.5088 29 35.5625 29H25.25V27.75Z" fill="white"/>
</svg>
