<svg width="32" height="32" viewBox="0 0 32 32" fill="none" xmlns="http://www.w3.org/2000/svg">
<path fill-rule="evenodd" clip-rule="evenodd" d="M25.5999 27.7333C25.5999 28.9109 24.6442 29.8667 23.4666 29.8667L15.9999 22.4L8.53327 29.8667C7.35567 29.8667 6.39994 28.9109 6.39994 27.7333V4.26667C6.39994 3.08907 7.35567 2.13333 8.53327 2.13333H23.4666C24.6442 2.13333 25.5999 3.08907 25.5999 4.26667V27.7333ZM23.4666 0H8.53327C6.177 0 4.2666 1.9104 4.2666 4.26667V27.7333C4.2666 30.0896 6.177 32 8.53327 32L15.9999 24.5333L23.4666 32C25.8229 32 27.7333 30.0896 27.7333 27.7333V4.26667C27.7333 1.9104 25.8229 0 23.4666 0Z" fill="#2E3192"/>
</svg>
