<svg width="48" height="48" viewBox="0 0 48 48" fill="none" xmlns="http://www.w3.org/2000/svg">
<path d="M47.2562 10.9375C48.0248 12.125 48.1977 13.4688 47.775 14.9688L39.8486 43.2812C39.4835 44.6146 38.7485 45.7344 37.6437 46.6406C36.5388 47.5469 35.3618 48 34.1128 48H7.50906C6.02947 48 4.60272 47.4427 3.22882 46.3281C1.85492 45.2135 0.898948 43.8438 0.360916 42.2188C-0.100254 40.8229 -0.11947 39.5 0.30327 38.25C0.30327 38.1667 0.332093 37.8854 0.389739 37.4062C0.447385 36.9271 0.485816 36.5417 0.505032 36.25C0.524247 36.0833 0.495424 35.8594 0.418562 35.5781C0.3417 35.2969 0.312877 35.0938 0.332093 34.9688C0.370524 34.7396 0.447385 34.5208 0.562678 34.3125C0.677971 34.1042 0.836498 33.8594 1.03826 33.5781C1.24002 33.2969 1.39855 33.0521 1.51384 32.8438C1.9558 32.0521 2.38814 31.099 2.81088 29.9844C3.23362 28.8698 3.52185 27.9167 3.67558 27.125C3.73322 26.9167 3.73803 26.6042 3.68999 26.1875C3.64195 25.7708 3.63715 25.4792 3.67558 25.3125C3.73322 25.0833 3.89656 24.7917 4.16557 24.4375C4.43459 24.0833 4.59792 23.8438 4.65556 23.7188C5.05909 22.9688 5.46261 22.0104 5.86614 20.8438C6.26966 19.6771 6.50985 18.7396 6.58672 18.0312C6.60593 17.8438 6.58191 17.5104 6.51466 17.0312C6.4474 16.5521 6.45221 16.2604 6.52907 16.1562C6.60593 15.8854 6.8173 15.5677 7.16318 15.2031C7.50906 14.8385 7.72043 14.6042 7.79729 14.5C8.16238 13.9583 8.57071 13.0781 9.02227 11.8594C9.47383 10.6406 9.73805 9.63542 9.81491 8.84375C9.83412 8.67708 9.8053 8.41146 9.72844 8.04688C9.65158 7.68229 9.63236 7.40625 9.67079 7.21875C9.70922 7.05208 9.79569 6.86458 9.9302 6.65625C10.0647 6.44792 10.2376 6.20833 10.449 5.9375C10.6604 5.66667 10.8237 5.44792 10.939 5.28125C11.0927 5.03125 11.2513 4.71354 11.4146 4.32812C11.5779 3.94271 11.722 3.57812 11.8469 3.23438C11.9718 2.89062 12.1256 2.51562 12.3081 2.10938C12.4907 1.70312 12.678 1.36979 12.8702 1.10938C13.0623 0.848958 13.3169 0.604167 13.634 0.375C13.951 0.145833 14.2969 0.0260417 14.6716 0.015625C15.0463 0.00520833 15.5027 0.0625 16.0407 0.1875L16.0119 0.28125C16.7421 0.09375 17.2321 0 17.4819 0H39.4163C40.8382 0 41.9335 0.583333 42.7021 1.75C43.4707 2.91667 43.6437 4.27083 43.2209 5.8125L35.3234 34.125C34.6316 36.6042 33.9447 38.2031 33.2625 38.9219C32.5804 39.6406 31.3458 40 29.5588 40H4.51145C3.99263 40 3.62754 40.1562 3.41617 40.4688C3.2048 40.8021 3.19519 41.25 3.38735 41.8125C3.84852 43.2708 5.23203 44 7.53788 44H34.1416C34.6989 44 35.2369 43.8385 35.7557 43.5156C36.2746 43.1927 36.6108 42.7604 36.7645 42.2188L45.4115 11.375C45.546 10.9167 45.594 10.3229 45.5556 9.59375C46.2858 9.90625 46.8526 10.3542 47.2562 10.9375ZM16.5883 11C16.5115 11.2708 16.5307 11.5052 16.646 11.7031C16.7613 11.901 16.9534 12 17.2225 12H34.7469C34.9967 12 35.2417 11.901 35.4819 11.7031C35.7221 11.5052 35.8806 11.2708 35.9575 11L36.5628 9C36.6396 8.72917 36.6204 8.49479 36.5051 8.29688C36.3899 8.09896 36.1977 8 35.9287 8H18.4042C18.1544 8 17.9094 8.09896 17.6692 8.29688C17.429 8.49479 17.2705 8.72917 17.1936 9L16.5883 11ZM14.196 19C14.1192 19.2708 14.1384 19.5052 14.2537 19.7031C14.369 19.901 14.5611 20 14.8301 20H32.3546C32.6044 20 32.8494 19.901 33.0896 19.7031C33.3298 19.5052 33.4883 19.2708 33.5652 19L34.1705 17C34.2473 16.7292 34.2281 16.4948 34.1128 16.2969C33.9975 16.099 33.8054 16 33.5364 16H16.0119C15.7621 16 15.5171 16.099 15.2769 16.2969C15.0367 16.4948 14.8782 16.7292 14.8013 17L14.196 19Z" fill="white"/>
</svg>
