<svg width="24" height="32" viewBox="0 0 24 32" fill="none" xmlns="http://www.w3.org/2000/svg">
<path fill-rule="evenodd" clip-rule="evenodd" d="M21.5999 27.7333C21.5999 28.9109 20.6442 29.8667 19.4666 29.8667L11.9999 22.4L4.53327 29.8667C3.35567 29.8667 2.39994 28.9109 2.39994 27.7333V4.26667C2.39994 3.08907 3.35567 2.13333 4.53327 2.13333H19.4666C20.6442 2.13333 21.5999 3.08907 21.5999 4.26667V27.7333ZM19.4666 0H4.53327C2.177 0 0.266602 1.9104 0.266602 4.26667V27.7333C0.266602 30.0896 2.177 32 4.53327 32L11.9999 24.5333L19.4666 32C21.8229 32 23.7333 30.0896 23.7333 27.7333V4.26667C23.7333 1.9104 21.8229 0 19.4666 0Z" fill="black"/>
</svg>
