<svg width="118" height="118" viewBox="0 0 118 118" fill="none" xmlns="http://www.w3.org/2000/svg">
<path d="M107.675 52.1167C107.183 51.625 107.183 51.1334 106.692 50.6417L96.8583 40.8084C94.8917 38.8417 91.9417 38.8417 89.975 40.8084C88.0083 42.775 88.0083 45.725 89.975 47.6917L91.45 49.1667H78.6667C75.7167 49.1667 73.75 51.1334 73.75 54.0834C73.75 57.0334 75.7167 59 78.6667 59H91.45L89.975 60.475C88.0083 62.4417 88.0083 65.3917 89.975 67.3584C90.9583 68.3417 92.4333 68.8334 93.4167 68.8334C94.4 68.8334 95.875 68.3417 96.8583 67.3584L106.692 57.525C107.183 57.0334 107.675 56.5417 107.675 56.05C108.167 54.575 108.167 53.5917 107.675 52.1167Z" fill="#2B00D7"/>
<path d="M83.5837 68.8333C80.6337 68.8333 78.667 70.8 78.667 73.75V78.6667C78.667 81.6167 76.7003 83.5833 73.7503 83.5833H68.8337V41.3C68.8337 34.9083 64.9003 29.5 59.492 27.5333L51.6253 24.5833H73.7503C76.7003 24.5833 78.667 26.55 78.667 29.5V34.4167C78.667 37.3667 80.6337 39.3333 83.5837 39.3333C86.5337 39.3333 88.5003 37.3667 88.5003 34.4167V29.5C88.5003 21.1417 82.1087 14.75 73.7503 14.75H24.5837C24.092 14.75 23.6003 14.75 23.1087 15.2417C22.617 15.2417 22.1253 15.7333 22.1253 15.7333L21.6337 16.225C21.142 16.225 20.6503 16.7167 20.6503 17.2083V17.7C20.1587 17.7 19.667 18.1917 19.667 18.6833V88.5C19.667 90.4667 21.142 92.4333 22.617 92.925L55.067 105.217C56.0503 105.708 57.5253 105.708 58.5087 105.708C60.4753 105.708 62.442 105.217 63.917 103.742C66.3753 101.775 68.342 98.825 68.342 95.875V93.4167H73.2587C81.617 93.4167 88.0087 87.025 88.0087 78.6667V73.75C88.5003 71.2917 86.5337 68.8333 83.5837 68.8333ZM29.5003 85.0583V26.55L55.5587 36.3833C57.5253 37.3667 59.0003 39.3333 59.0003 41.3V95.875L29.5003 85.0583Z" fill="#2B00D7"/>
</svg>
