<svg width="70" height="92" viewBox="0 0 70 92" fill="none" xmlns="http://www.w3.org/2000/svg">
<path d="M64.5837 54.8333C61.6337 54.8333 59.667 56.8 59.667 59.75V64.6667C59.667 67.6167 57.7003 69.5833 54.7503 69.5833H49.8337V27.3C49.8337 20.9083 45.9003 15.5 40.492 13.5333L32.6253 10.5833H54.7503C57.7003 10.5833 59.667 12.55 59.667 15.5V20.4167C59.667 23.3667 61.6337 25.3333 64.5837 25.3333C67.5337 25.3333 69.5003 23.3667 69.5003 20.4167V15.5C69.5003 7.14167 63.1087 0.75 54.7503 0.75H5.58366C5.09199 0.75 4.60032 0.75 4.10866 1.24167C3.61699 1.24167 3.12533 1.73333 3.12533 1.73333L2.63366 2.225C2.14199 2.225 1.65032 2.71667 1.65032 3.20833V3.7C1.15866 3.7 0.666992 4.19167 0.666992 4.68333V74.5C0.666992 76.4667 2.14199 78.4333 3.61699 78.925L36.067 91.2167C37.0503 91.7083 38.5253 91.7083 39.5087 91.7083C41.4753 91.7083 43.442 91.2167 44.917 89.7417C47.3753 87.775 49.342 84.825 49.342 81.875V79.4167H54.2587C62.617 79.4167 69.0087 73.025 69.0087 64.6667V59.75C69.5003 57.2917 67.5337 54.8333 64.5837 54.8333ZM10.5003 71.0583V12.55L36.5587 22.3833C38.5253 23.3667 40.0003 25.3333 40.0003 27.3V81.875L10.5003 71.0583Z" fill="#2B00D7"/>
</svg>
