<svg width="40" height="40" viewBox="0 0 40 40" fill="none" xmlns="http://www.w3.org/2000/svg">
<path d="M36.1832 33.8168L29.9998 27.6834C32.4 24.6908 33.5623 20.8923 33.2479 17.0689C32.9334 13.2456 31.166 9.68806 28.309 7.12783C25.4521 4.5676 21.7229 3.19927 17.888 3.3042C14.0532 3.40914 10.4044 4.97935 7.69174 7.69199C4.97911 10.4046 3.40889 14.0535 3.30396 17.8883C3.19902 21.7231 4.56735 25.4524 7.12758 28.3093C9.68781 31.1662 13.2453 32.9336 17.0687 33.2481C20.892 33.5626 24.6905 32.4003 27.6832 30.0001L33.8165 36.1334C33.9714 36.2896 34.1558 36.4136 34.3589 36.4982C34.562 36.5829 34.7798 36.6264 34.9998 36.6264C35.2199 36.6264 35.4377 36.5829 35.6408 36.4982C35.8439 36.4136 36.0282 36.2896 36.1832 36.1334C36.4836 35.8226 36.6515 35.4073 36.6515 34.9751C36.6515 34.5429 36.4836 34.1275 36.1832 33.8168ZM18.3332 30.0001C16.0257 30.0001 13.7701 29.3158 11.8515 28.0339C9.93295 26.7519 8.4376 24.9299 7.55458 22.7981C6.67156 20.6663 6.44052 18.3205 6.89068 16.0574C7.34084 13.7943 8.45198 11.7155 10.0836 10.0838C11.7152 8.45223 13.794 7.34108 16.0571 6.89092C18.3202 6.44076 20.666 6.6718 22.7978 7.55482C24.9296 8.43785 26.7517 9.93319 28.0337 11.8518C29.3156 13.7703 29.9998 16.026 29.9998 18.3334C29.9998 21.4276 28.7707 24.3951 26.5828 26.583C24.3948 28.7709 21.4274 30.0001 18.3332 30.0001Z" fill="white"/>
</svg>
