<svg width="34" height="34" viewBox="0 0 34 34" fill="none" xmlns="http://www.w3.org/2000/svg">
<path d="M24.7668 0.333252C30.4335 0.333252 33.6668 3.53325 33.6668 9.21659V24.7833C33.6668 30.4333 30.4502 33.6666 24.7835 33.6666H9.21683C3.5335 33.6666 0.333496 30.4333 0.333496 24.7833V9.21659C0.333496 3.53325 3.5335 0.333252 9.21683 0.333252H24.7668ZM16.9835 9.51658C16.2168 9.51658 15.6002 10.1333 15.6002 10.8999V15.5999H10.8835C10.5168 15.5999 10.1668 15.7499 9.90016 15.9999C9.65016 16.2666 9.50016 16.6149 9.50016 16.9833C9.50016 17.7499 10.1168 18.3666 10.8835 18.3833H15.6002V23.0999C15.6002 23.8666 16.2168 24.4833 16.9835 24.4833C17.7502 24.4833 18.3668 23.8666 18.3668 23.0999V18.3833H23.1002C23.8668 18.3666 24.4835 17.7499 24.4835 16.9833C24.4835 16.2166 23.8668 15.5999 23.1002 15.5999H18.3668V10.8999C18.3668 10.1333 17.7502 9.51658 16.9835 9.51658Z" fill="white"/>
</svg>
