<svg width="18" height="17"  viewBox="0 0 18 17" fill="none" xmlns="http://www.w3.org/2000/svg">
<path d="M12.0417 10.7336C12.9447 9.64054 13.515 8.23856 13.515 6.694C13.515 3.2247 10.6872 0.396973 7.21793 0.396973C3.74862 0.396973 0.920898 3.2247 0.920898 6.694C0.920898 10.1633 3.74862 12.991 7.21793 12.991C8.73872 12.991 10.1645 12.4445 11.2575 11.5178L16.1526 16.4128C16.2714 16.5316 16.414 16.5792 16.5565 16.5792C16.6991 16.5792 16.8417 16.5316 16.9605 16.4128C17.1744 16.199 17.1744 15.8188 16.9605 15.6049L12.0417 10.7336ZM7.19417 11.8504C4.34268 11.8504 2.03773 9.54549 2.03773 6.694C2.03773 3.84252 4.34268 1.53757 7.19417 1.53757C10.0457 1.53757 12.3506 3.84252 12.3506 6.694C12.3506 9.54549 10.0457 11.8504 7.19417 11.8504Z" fill="currentColor" fillOpacity="0.76"/>
</svg>


