<svg width="20" height="19" viewBox="0 0 20 19" fill="none" xmlns="http://www.w3.org/2000/svg">
<path d="M18.521 0.977998C18.3335 0.790527 18.0792 0.685211 17.814 0.685211C17.5488 0.685211 17.2945 0.790527 17.107 0.977998L1.48 16.607C1.38449 16.6992 1.30831 16.8096 1.2559 16.9316C1.20349 17.0536 1.1759 17.1848 1.17475 17.3176C1.1736 17.4504 1.1989 17.5821 1.24918 17.705C1.29946 17.8278 1.37371 17.9395 1.4676 18.0334C1.5615 18.1273 1.67315 18.2015 1.79605 18.2518C1.91894 18.3021 2.05062 18.3274 2.1834 18.3262C2.31618 18.3251 2.4474 18.2975 2.5694 18.2451C2.69141 18.1927 2.80175 18.1165 2.894 18.021L18.52 2.392C18.7075 2.20447 18.8128 1.95016 18.8128 1.685C18.8128 1.41983 18.7085 1.16553 18.521 0.977998ZM3.108 12.998L5.668 10.438C5.59501 10.1306 5.5571 9.81593 5.555 9.5C5.555 7.121 7.545 5.191 10 5.191C10.286 5.191 10.564 5.223 10.835 5.273L12.038 4.071C11.3644 3.9594 10.6828 3.90255 10 3.901C3.44 3.9 0 8.731 0 9.5C0 9.923 1.057 11.591 3.108 12.998ZM16.895 6.005L14.333 8.565C14.402 8.867 14.444 9.178 14.444 9.5C14.444 11.879 12.455 13.807 10 13.807C9.716 13.807 9.44 13.775 9.171 13.726L7.967 14.929C8.609 15.033 9.283 15.099 10 15.099C16.56 15.099 20 10.266 20 9.5C20 9.076 18.944 7.41 16.895 6.005Z" fill="#1E1E1E" fill-opacity="0.78"/>
</svg>
