<svg width="32" height="33" viewBox="0 0 32 33" fill="none" xmlns="http://www.w3.org/2000/svg">
<g clip-path="url(#clip0_2_1638)">
<path fill-rule="evenodd" clip-rule="evenodd" d="M25.6 28.2333C25.6 29.4109 24.6443 30.3667 23.4667 30.3667L16 22.9L8.53333 30.3667C7.35573 30.3667 6.4 29.4109 6.4 28.2333V4.76667C6.4 3.58907 7.35573 2.63333 8.53333 2.63333H23.4667C24.6443 2.63333 25.6 3.58907 25.6 4.76667V28.2333ZM23.4667 0.5H8.53333C6.17706 0.5 4.26666 2.4104 4.26666 4.76667V28.2333C4.26666 30.5896 6.17706 32.5 8.53333 32.5L16 25.0333L23.4667 32.5C25.8229 32.5 27.7333 30.5896 27.7333 28.2333V4.76667C27.7333 2.4104 25.8229 0.5 23.4667 0.5Z" fill="#8F8F8F"/>
</g>
<defs>
<clipPath id="clip0_2_1638">
<rect width="32" height="32" fill="white" transform="translate(0 0.5)"/>
</clipPath>
</defs>
</svg>
