<svg width="33" height="27" viewBox="0 0 33 27" fill="none" xmlns="http://www.w3.org/2000/svg">
<path d="M6.27008 23.1083C4.43451 23.109 2.61814 23.4817 0.930664 24.204V2.20137C3.00004 0.957219 5.43191 0.456186 7.82455 0.781045C10.2172 1.1059 12.4274 2.23722 14.0901 3.9881L15.0169 4.95634V26.3155C12.5712 24.2475 9.47284 23.1114 6.27008 23.1083ZM32.0686 24.204C29.7561 23.2136 27.2135 22.8866 24.7257 23.2595C22.2378 23.6324 19.9029 24.6906 17.9824 26.3155V4.95634L18.9106 3.9881C20.5735 2.23805 22.7834 1.1073 25.1756 0.782463C27.5678 0.45763 29.9992 0.958137 32.0686 2.20137V24.204Z" fill="#2B00D7"/>
</svg>
