<svg width="32" height="29" viewBox="0 0 32 29" fill="none" xmlns="http://www.w3.org/2000/svg">
<path fill-rule="evenodd" clip-rule="evenodd" d="M18.8239 0.383301V28.6191H15.6106L8.08108 21.0896H2.82358C1.26683 21.0896 0 19.8227 0 18.266V10.7364C0 9.17968 1.26683 7.91285 2.82358 7.91285H8.08108L15.6106 0.383301H18.8239ZM16.9415 2.26568H16.3899L9.41193 9.24368V19.7587L16.3899 26.7367H16.9415V2.2657V2.26568ZM27.8663 4.51758C30.5317 7.18492 32 10.7295 32 14.5018C32 18.2722 30.5317 21.8167 27.8663 24.4841L26.5354 23.1532C28.847 20.8416 30.1176 17.7696 30.1176 14.5018C30.1176 11.2321 28.847 8.16 26.5354 5.84843L27.8663 4.51758ZM23.8811 8.51333C25.4755 10.1303 26.3527 12.2574 26.3527 14.5012C26.3527 16.745 25.4755 18.8721 23.8811 20.4891L22.5389 19.1676C23.7851 17.9046 24.4703 16.2481 24.4703 14.5012C24.4703 12.7544 23.7851 11.0979 22.5389 9.83477L23.8811 8.51333ZM7.52955 9.79523H2.82358C2.30592 9.79523 1.88238 10.2169 1.88238 10.7364V18.266C1.88238 18.7855 2.30592 19.2072 2.82358 19.2072H7.52955V9.79523Z" fill="#8F8F8F"/>
</svg>
